<mxfile host="65bd71144e" modified="2021-02-12T11:03:32.470Z" agent="5.0 (Windows NT 10.0; Win64; x64) AppleWebKit/537.36 (KHTML, like Gecko) Code/1.52.1 Chrome/83.0.4103.122 Electron/9.3.5 Safari/537.36" etag="sMQ60uAn9l4Nlk6tYFN9" version="14.2.4" type="embed">
    <diagram name="Page-1" id="c4acf3e9-155e-7222-9cf6-157b1a14988f">
        <mxGraphModel dx="1001" dy="574" grid="1" gridSize="10" guides="1" tooltips="1" connect="1" arrows="1" fold="1" page="1" pageScale="1" pageWidth="1169" pageHeight="827" background="#ffffff" math="0" shadow="0">
            <root>
                <mxCell id="0"/>
                <mxCell id="xz3UGmXirjeHPVvn3eTa-82" value="Block" style="locked=1;" parent="0"/>
                <mxCell id="xz3UGmXirjeHPVvn3eTa-83" value="" style="verticalAlign=top;align=left;spacingTop=8;spacingLeft=2;spacingRight=12;shape=cube;size=39;direction=south;fontStyle=4;html=1;strokeColor=#000000;fillColor=#ffffff;gradientColor=none;" parent="xz3UGmXirjeHPVvn3eTa-82" vertex="1">
                    <mxGeometry x="80" y="81" width="1020" height="959" as="geometry"/>
                </mxCell>
                <mxCell id="1" parent="0"/>
                <mxCell id="xz3UGmXirjeHPVvn3eTa-5" value="Bateria" style="swimlane;fontStyle=1;align=center;verticalAlign=top;childLayout=stackLayout;horizontal=1;startSize=26;horizontalStack=0;resizeParent=1;resizeParentMax=0;resizeLast=0;collapsible=1;marginBottom=0;fillColor=#ffcd28;strokeColor=#d79b00;gradientColor=#ffa500;" parent="1" vertex="1" collapsed="1">
                    <mxGeometry x="535" y="20" width="100" height="26" as="geometry">
                        <mxRectangle x="535" y="20" width="160" height="52" as="alternateBounds"/>
                    </mxGeometry>
                </mxCell>
                <mxCell id="xz3UGmXirjeHPVvn3eTa-6" value="SerialNumber:" style="text;strokeColor=#000000;fillColor=#ffffff;align=left;verticalAlign=top;spacingLeft=4;spacingRight=4;overflow=hidden;rotatable=0;points=[[0,0.5],[1,0.5]];portConstraint=eastwest;" parent="xz3UGmXirjeHPVvn3eTa-5" vertex="1">
                    <mxGeometry y="26" width="100" height="26" as="geometry"/>
                </mxCell>
                <mxCell id="xz3UGmXirjeHPVvn3eTa-64" value="" style="edgeStyle=orthogonalEdgeStyle;rounded=0;orthogonalLoop=1;jettySize=auto;html=1;entryX=0;entryY=0.5;entryDx=0;entryDy=0;startArrow=none;startFill=0;endArrow=classic;endFill=1;" parent="1" source="xz3UGmXirjeHPVvn3eTa-1" target="xz3UGmXirjeHPVvn3eTa-49" edge="1">
                    <mxGeometry x="-0.6762" relative="1" as="geometry">
                        <Array as="points">
                            <mxPoint x="750" y="472"/>
                            <mxPoint x="750" y="399"/>
                        </Array>
                        <mxPoint as="offset"/>
                    </mxGeometry>
                </mxCell>
                <mxCell id="xz3UGmXirjeHPVvn3eTa-78" value="Se comunica" style="edgeStyle=orthogonalEdgeStyle;rounded=0;orthogonalLoop=1;jettySize=auto;html=1;entryX=0.5;entryY=0;entryDx=0;entryDy=0;startArrow=classic;startFill=1;endArrow=classic;endFill=1;exitX=0.25;exitY=1;exitDx=0;exitDy=0;" parent="1" source="xz3UGmXirjeHPVvn3eTa-1" target="xz3UGmXirjeHPVvn3eTa-21" edge="1">
                    <mxGeometry relative="1" as="geometry">
                        <mxPoint x="560" y="550" as="sourcePoint"/>
                    </mxGeometry>
                </mxCell>
                <mxCell id="xz3UGmXirjeHPVvn3eTa-79" value="Se comunica" style="edgeStyle=orthogonalEdgeStyle;rounded=0;orthogonalLoop=1;jettySize=auto;html=1;entryX=0.5;entryY=0;entryDx=0;entryDy=0;startArrow=classic;startFill=1;endArrow=classic;endFill=1;exitX=0.75;exitY=1;exitDx=0;exitDy=0;" parent="1" source="xz3UGmXirjeHPVvn3eTa-1" target="xz3UGmXirjeHPVvn3eTa-13" edge="1">
                    <mxGeometry relative="1" as="geometry">
                        <mxPoint x="700" y="560" as="sourcePoint"/>
                        <Array as="points">
                            <mxPoint x="610" y="620"/>
                            <mxPoint x="640" y="620"/>
                        </Array>
                    </mxGeometry>
                </mxCell>
                <mxCell id="xz3UGmXirjeHPVvn3eTa-66" value="Connected to" style="endArrow=classic;html=1;endSize=6;startArrow=none;startSize=6;startFill=0;edgeStyle=orthogonalEdgeStyle;endFill=1;" parent="1" source="xz3UGmXirjeHPVvn3eTa-9" target="xz3UGmXirjeHPVvn3eTa-1" edge="1">
                    <mxGeometry relative="1" as="geometry">
                        <mxPoint x="290" y="450" as="sourcePoint"/>
                        <mxPoint x="740" y="660" as="targetPoint"/>
                    </mxGeometry>
                </mxCell>
                <mxCell id="xz3UGmXirjeHPVvn3eTa-67" value="5" style="resizable=0;html=1;align=left;verticalAlign=top;labelBackgroundColor=#ffffff;fontSize=10;" parent="xz3UGmXirjeHPVvn3eTa-66" connectable="0" vertex="1">
                    <mxGeometry x="-1" relative="1" as="geometry"/>
                </mxCell>
                <mxCell id="xz3UGmXirjeHPVvn3eTa-68" value="1" style="resizable=0;html=1;align=right;verticalAlign=top;labelBackgroundColor=#ffffff;fontSize=10;" parent="xz3UGmXirjeHPVvn3eTa-66" connectable="0" vertex="1">
                    <mxGeometry x="1" relative="1" as="geometry"/>
                </mxCell>
                <mxCell id="xz3UGmXirjeHPVvn3eTa-81" style="edgeStyle=orthogonalEdgeStyle;rounded=0;orthogonalLoop=1;jettySize=auto;html=1;entryX=0;entryY=0;entryDx=0;entryDy=555;entryPerimeter=0;startArrow=diamond;startFill=1;endArrow=classic;endFill=1;" parent="1" source="xz3UGmXirjeHPVvn3eTa-5" edge="1">
                    <mxGeometry relative="1" as="geometry">
                        <mxPoint x="585" y="81" as="targetPoint"/>
                    </mxGeometry>
                </mxCell>
                <mxCell id="xz3UGmXirjeHPVvn3eTa-86" value="" style="edgeStyle=orthogonalEdgeStyle;rounded=0;orthogonalLoop=1;jettySize=auto;html=1;exitX=1;exitY=0.5;exitDx=0;exitDy=0;startArrow=none;startFill=0;endArrow=classic;endFill=1;entryX=0;entryY=0.5;entryDx=0;entryDy=0;" parent="1" source="xz3UGmXirjeHPVvn3eTa-1" target="xz3UGmXirjeHPVvn3eTa-76" edge="1">
                    <mxGeometry x="-0.5979" relative="1" as="geometry">
                        <Array as="points">
                            <mxPoint x="750" y="472"/>
                            <mxPoint x="750" y="553"/>
                        </Array>
                        <mxPoint as="offset"/>
                    </mxGeometry>
                </mxCell>
                <mxCell id="xz3UGmXirjeHPVvn3eTa-87" value="" style="edgeStyle=orthogonalEdgeStyle;rounded=0;orthogonalLoop=1;jettySize=auto;html=1;exitX=1;exitY=0.5;exitDx=0;exitDy=0;entryX=0;entryY=0.5;entryDx=0;entryDy=0;startArrow=none;startFill=0;endArrow=classic;endFill=1;" parent="1" source="xz3UGmXirjeHPVvn3eTa-1" target="xz3UGmXirjeHPVvn3eTa-41" edge="1">
                    <mxGeometry x="-0.7568" relative="1" as="geometry">
                        <Array as="points">
                            <mxPoint x="750" y="472"/>
                            <mxPoint x="750" y="749"/>
                        </Array>
                        <mxPoint as="offset"/>
                    </mxGeometry>
                </mxCell>
                <mxCell id="xz3UGmXirjeHPVvn3eTa-90" value="Actua Sobre" style="edgeLabel;html=1;align=center;verticalAlign=middle;resizable=0;points=[];" parent="xz3UGmXirjeHPVvn3eTa-87" vertex="1" connectable="0">
                    <mxGeometry x="-0.676" y="-2" relative="1" as="geometry">
                        <mxPoint x="-22.32999999999999" y="-3" as="offset"/>
                    </mxGeometry>
                </mxCell>
                <mxCell id="xz3UGmXirjeHPVvn3eTa-49" value="Buzzer" style="swimlane;fontStyle=1;align=center;verticalAlign=top;childLayout=stackLayout;horizontal=1;startSize=26;horizontalStack=0;resizeParent=1;resizeParentMax=0;resizeLast=0;collapsible=1;marginBottom=0;fillColor=#c7c7c7;" parent="1" vertex="1">
                    <mxGeometry x="840" y="360" width="160" height="78" as="geometry">
                        <mxRectangle x="840" y="150" width="100" height="26" as="alternateBounds"/>
                    </mxGeometry>
                </mxCell>
                <mxCell id="xz3UGmXirjeHPVvn3eTa-56" value="melody: integer" style="text;strokeColor=#000000;fillColor=#ffffff;align=left;verticalAlign=top;spacingLeft=4;spacingRight=4;overflow=hidden;rotatable=0;points=[[0,0.5],[1,0.5]];portConstraint=eastwest;" parent="xz3UGmXirjeHPVvn3eTa-49" vertex="1">
                    <mxGeometry y="26" width="160" height="26" as="geometry"/>
                </mxCell>
                <mxCell id="xz3UGmXirjeHPVvn3eTa-71" value="PlayMelody(): bool&#10;" style="text;strokeColor=#000000;fillColor=#ffffff;align=left;verticalAlign=top;spacingLeft=4;spacingRight=4;overflow=hidden;rotatable=0;points=[[0,0.5],[1,0.5]];portConstraint=eastwest;" parent="xz3UGmXirjeHPVvn3eTa-49" vertex="1">
                    <mxGeometry y="52" width="160" height="26" as="geometry"/>
                </mxCell>
                <mxCell id="xz3UGmXirjeHPVvn3eTa-33" value="DCDC" style="swimlane;fontStyle=1;align=center;verticalAlign=top;childLayout=stackLayout;horizontal=1;startSize=26;horizontalStack=0;resizeParent=1;resizeParentMax=0;resizeLast=0;collapsible=1;marginBottom=0;fillColor=#c7c7c7;" parent="1" vertex="1">
                    <mxGeometry x="835" y="510" width="160" height="118" as="geometry">
                        <mxRectangle x="840" y="201" width="100" height="26" as="alternateBounds"/>
                    </mxGeometry>
                </mxCell>
                <mxCell id="xz3UGmXirjeHPVvn3eTa-76" value="TargetVoltage: integer" style="text;strokeColor=#000000;fillColor=#ffffff;align=left;verticalAlign=top;spacingLeft=4;spacingRight=4;overflow=hidden;rotatable=0;points=[[0,0.5],[1,0.5]];portConstraint=eastwest;" parent="xz3UGmXirjeHPVvn3eTa-33" vertex="1">
                    <mxGeometry y="26" width="160" height="34" as="geometry"/>
                </mxCell>
                <mxCell id="xz3UGmXirjeHPVvn3eTa-77" value="SetVoltage()&#10;Starting()&#10;CheckOut()" style="text;strokeColor=#000000;fillColor=#ffffff;align=left;verticalAlign=top;spacingLeft=4;spacingRight=4;overflow=hidden;rotatable=0;points=[[0,0.5],[1,0.5]];portConstraint=eastwest;" parent="xz3UGmXirjeHPVvn3eTa-33" vertex="1">
                    <mxGeometry y="60" width="160" height="58" as="geometry"/>
                </mxCell>
                <mxCell id="xz3UGmXirjeHPVvn3eTa-9" value="Button" style="swimlane;fontStyle=1;align=center;verticalAlign=top;childLayout=stackLayout;horizontal=1;startSize=26;horizontalStack=0;resizeParent=1;resizeParentMax=0;resizeLast=0;collapsible=1;marginBottom=0;fillColor=#CFCFCF;strokeColor=#666666;fontColor=#333333;" parent="1" vertex="1" collapsed="1">
                    <mxGeometry x="140" y="432" width="100" height="26" as="geometry">
                        <mxRectangle x="140" y="432" width="160" height="78" as="alternateBounds"/>
                    </mxGeometry>
                </mxCell>
                <mxCell id="xz3UGmXirjeHPVvn3eTa-62" value="event: integer" style="text;strokeColor=#000000;fillColor=#ffffff;align=left;verticalAlign=top;spacingLeft=4;spacingRight=4;overflow=hidden;rotatable=0;points=[[0,0.5],[1,0.5]];portConstraint=eastwest;" parent="xz3UGmXirjeHPVvn3eTa-9" vertex="1">
                    <mxGeometry y="26" width="100" height="26" as="geometry"/>
                </mxCell>
                <mxCell id="xz3UGmXirjeHPVvn3eTa-12" value="ReadDpadEvent(): integer" style="text;strokeColor=#000000;fillColor=#ffffff;align=left;verticalAlign=top;spacingLeft=4;spacingRight=4;overflow=hidden;rotatable=0;points=[[0,0.5],[1,0.5]];portConstraint=eastwest;" parent="xz3UGmXirjeHPVvn3eTa-9" vertex="1">
                    <mxGeometry y="52" width="100" height="26" as="geometry"/>
                </mxCell>
                <mxCell id="xz3UGmXirjeHPVvn3eTa-13" value="Sensor Salida" style="swimlane;fontStyle=1;align=center;verticalAlign=top;childLayout=stackLayout;horizontal=1;startSize=26;horizontalStack=0;resizeParent=1;resizeParentMax=0;resizeLast=0;collapsible=1;marginBottom=0;fillColor=#c7c7c7;" parent="1" vertex="1">
                    <mxGeometry x="560" y="682" width="160" height="140" as="geometry">
                        <mxRectangle x="730" y="440" width="100" height="26" as="alternateBounds"/>
                    </mxGeometry>
                </mxCell>
                <mxCell id="xz3UGmXirjeHPVvn3eTa-74" value="StateOut: integer&#10;VoltageOutput: integer" style="text;strokeColor=#000000;fillColor=#ffffff;align=left;verticalAlign=top;spacingLeft=4;spacingRight=4;overflow=hidden;rotatable=0;points=[[0,0.5],[1,0.5]];portConstraint=eastwest;" parent="xz3UGmXirjeHPVvn3eTa-13" vertex="1">
                    <mxGeometry y="26" width="160" height="44" as="geometry"/>
                </mxCell>
                <mxCell id="xz3UGmXirjeHPVvn3eTa-75" value="CheckOut(): integer&#10;PowerProteccion()&#10;CurrrentProteccion()&#10;VoltageProteccion()" style="text;strokeColor=#000000;fillColor=#ffffff;align=left;verticalAlign=top;spacingLeft=4;spacingRight=4;overflow=hidden;rotatable=0;points=[[0,0.5],[1,0.5]];portConstraint=eastwest;" parent="xz3UGmXirjeHPVvn3eTa-13" vertex="1">
                    <mxGeometry y="70" width="160" height="70" as="geometry"/>
                </mxCell>
                <mxCell id="xz3UGmXirjeHPVvn3eTa-21" value="Sensor Entrada&#10;&quot;Babysitter&quot;" style="swimlane;fontStyle=1;align=center;verticalAlign=top;childLayout=stackLayout;horizontal=1;startSize=40;horizontalStack=0;resizeParent=1;resizeParentMax=0;resizeLast=0;collapsible=1;marginBottom=0;fillColor=#C7C7C7;strokeColor=#666666;fontColor=#333333;" parent="1" vertex="1">
                    <mxGeometry x="375" y="682" width="160" height="110" as="geometry">
                        <mxRectangle x="260" y="414" width="100" height="26" as="alternateBounds"/>
                    </mxGeometry>
                </mxCell>
                <mxCell id="xz3UGmXirjeHPVvn3eTa-26" value="BateryState: integer&#10;CapacityPercent: integer" style="text;strokeColor=#000000;fillColor=#ffffff;align=left;verticalAlign=top;spacingLeft=4;spacingRight=4;overflow=hidden;rotatable=0;points=[[0,0.5],[1,0.5]];portConstraint=eastwest;" parent="xz3UGmXirjeHPVvn3eTa-21" vertex="1">
                    <mxGeometry y="40" width="160" height="44" as="geometry"/>
                </mxCell>
                <mxCell id="xz3UGmXirjeHPVvn3eTa-70" value="CheckBatt(): integer" style="text;strokeColor=#000000;fillColor=#ffffff;align=left;verticalAlign=top;spacingLeft=4;spacingRight=4;overflow=hidden;rotatable=0;points=[[0,0.5],[1,0.5]];portConstraint=eastwest;" parent="xz3UGmXirjeHPVvn3eTa-21" vertex="1">
                    <mxGeometry y="84" width="160" height="26" as="geometry"/>
                </mxCell>
                <mxCell id="jemLrF2ofR5O3yfcIOmH-8" style="edgeStyle=orthogonalEdgeStyle;rounded=0;orthogonalLoop=1;jettySize=auto;html=1;labelBackgroundColor=#FFFFC0;startArrow=none;startFill=0;endArrow=classic;endFill=1;strokeColor=#000000;fontSize=40;" parent="1" source="xz3UGmXirjeHPVvn3eTa-1" target="jemLrF2ofR5O3yfcIOmH-4" edge="1">
                    <mxGeometry relative="1" as="geometry">
                        <Array as="points">
                            <mxPoint x="590" y="390"/>
                            <mxPoint x="730" y="390"/>
                        </Array>
                    </mxGeometry>
                </mxCell>
                <mxCell id="jemLrF2ofR5O3yfcIOmH-9" style="edgeStyle=orthogonalEdgeStyle;rounded=0;orthogonalLoop=1;jettySize=auto;html=1;labelBackgroundColor=#FFFFC0;startArrow=none;startFill=0;endArrow=classic;endFill=1;strokeColor=#000000;fontSize=40;" parent="1" source="xz3UGmXirjeHPVvn3eTa-1" target="jemLrF2ofR5O3yfcIOmH-1" edge="1">
                    <mxGeometry relative="1" as="geometry">
                        <Array as="points">
                            <mxPoint x="590" y="390"/>
                            <mxPoint x="430" y="390"/>
                        </Array>
                    </mxGeometry>
                </mxCell>
                <mxCell id="jemLrF2ofR5O3yfcIOmH-1" value="StatusLeds" style="swimlane;fontStyle=1;align=center;verticalAlign=top;childLayout=stackLayout;horizontal=1;startSize=26;horizontalStack=0;resizeParent=1;resizeParentMax=0;resizeLast=0;collapsible=1;marginBottom=0;fillColor=#c7c7c7;" parent="1" vertex="1">
                    <mxGeometry x="350" y="250" width="160" height="96" as="geometry">
                        <mxRectangle x="840" y="150" width="100" height="26" as="alternateBounds"/>
                    </mxGeometry>
                </mxCell>
                <mxCell id="jemLrF2ofR5O3yfcIOmH-2" value="OutputLedState: integer&#10;BatteryLedState:integer&#10;" style="text;strokeColor=#000000;fillColor=#ffffff;align=left;verticalAlign=top;spacingLeft=4;spacingRight=4;overflow=hidden;rotatable=0;points=[[0,0.5],[1,0.5]];portConstraint=eastwest;" parent="jemLrF2ofR5O3yfcIOmH-1" vertex="1">
                    <mxGeometry y="26" width="160" height="44" as="geometry"/>
                </mxCell>
                <mxCell id="jemLrF2ofR5O3yfcIOmH-3" value="UpdatesLeds()" style="text;strokeColor=#000000;fillColor=#ffffff;align=left;verticalAlign=top;spacingLeft=4;spacingRight=4;overflow=hidden;rotatable=0;points=[[0,0.5],[1,0.5]];portConstraint=eastwest;" parent="jemLrF2ofR5O3yfcIOmH-1" vertex="1">
                    <mxGeometry y="70" width="160" height="26" as="geometry"/>
                </mxCell>
                <mxCell id="jemLrF2ofR5O3yfcIOmH-4" value="PowerBar" style="swimlane;fontStyle=1;align=center;verticalAlign=top;childLayout=stackLayout;horizontal=1;startSize=26;horizontalStack=0;resizeParent=1;resizeParentMax=0;resizeLast=0;collapsible=1;marginBottom=0;fillColor=#c7c7c7;" parent="1" vertex="1">
                    <mxGeometry x="650" y="250" width="160" height="78" as="geometry">
                        <mxRectangle x="840" y="150" width="100" height="26" as="alternateBounds"/>
                    </mxGeometry>
                </mxCell>
                <mxCell id="jemLrF2ofR5O3yfcIOmH-5" value="PowerLevel:integer" style="text;strokeColor=#000000;fillColor=#ffffff;align=left;verticalAlign=top;spacingLeft=4;spacingRight=4;overflow=hidden;rotatable=0;points=[[0,0.5],[1,0.5]];portConstraint=eastwest;" parent="jemLrF2ofR5O3yfcIOmH-4" vertex="1">
                    <mxGeometry y="26" width="160" height="26" as="geometry"/>
                </mxCell>
                <mxCell id="jemLrF2ofR5O3yfcIOmH-6" value="UpdatePowerBar(): bool" style="text;strokeColor=#000000;fillColor=#ffffff;align=left;verticalAlign=top;spacingLeft=4;spacingRight=4;overflow=hidden;rotatable=0;points=[[0,0.5],[1,0.5]];portConstraint=eastwest;" parent="jemLrF2ofR5O3yfcIOmH-4" vertex="1">
                    <mxGeometry y="52" width="160" height="26" as="geometry"/>
                </mxCell>
                <mxCell id="xz3UGmXirjeHPVvn3eTa-1" value="CPU" style="swimlane;fontStyle=1;align=center;verticalAlign=top;childLayout=stackLayout;horizontal=1;startSize=26;horizontalStack=0;resizeParent=1;resizeParentMax=0;resizeLast=0;collapsible=1;marginBottom=0;fillColor=#c7c7c7;" parent="1" vertex="1" collapsed="1">
                    <mxGeometry x="535" y="458" width="100" height="26" as="geometry">
                        <mxRectangle x="510" y="432" width="160" height="80" as="alternateBounds"/>
                    </mxGeometry>
                </mxCell>
                <mxCell id="xz3UGmXirjeHPVvn3eTa-54" value="" style="text;strokeColor=#000000;fillColor=#ffffff;align=left;verticalAlign=top;spacingLeft=4;spacingRight=4;overflow=hidden;rotatable=0;points=[[0,0.5],[1,0.5]];portConstraint=eastwest;" parent="xz3UGmXirjeHPVvn3eTa-1" vertex="1">
                    <mxGeometry y="26" width="100" height="26" as="geometry"/>
                </mxCell>
                <mxCell id="xz3UGmXirjeHPVvn3eTa-28" value="" style="text;strokeColor=#000000;fillColor=#ffffff;align=left;verticalAlign=top;spacingLeft=4;spacingRight=4;overflow=hidden;rotatable=0;points=[[0,0.5],[1,0.5]];portConstraint=eastwest;" parent="xz3UGmXirjeHPVvn3eTa-1" vertex="1">
                    <mxGeometry y="52" width="100" height="28" as="geometry"/>
                </mxCell>
                <mxCell id="xz3UGmXirjeHPVvn3eTa-41" value="Display" style="swimlane;fontStyle=1;align=center;verticalAlign=top;childLayout=stackLayout;horizontal=1;startSize=26;horizontalStack=0;resizeParent=1;resizeParentMax=0;resizeLast=0;collapsible=1;marginBottom=0;fillColor=#CFCFCF;strokeColor=#666666;fontColor=#333333;" parent="1" vertex="1">
                    <mxGeometry x="845" y="677" width="150" height="150" as="geometry">
                        <mxRectangle x="840" y="320" width="100" height="26" as="alternateBounds"/>
                    </mxGeometry>
                </mxCell>
                <mxCell id="xz3UGmXirjeHPVvn3eTa-46" value="type: integer&#10;info: integer" style="text;strokeColor=#000000;fillColor=#ffffff;align=left;verticalAlign=top;spacingLeft=4;spacingRight=4;overflow=hidden;rotatable=0;points=[[0,0.5],[1,0.5]];portConstraint=eastwest;gradientColor=none;" parent="xz3UGmXirjeHPVvn3eTa-41" vertex="1">
                    <mxGeometry y="26" width="150" height="54" as="geometry"/>
                </mxCell>
                <mxCell id="xz3UGmXirjeHPVvn3eTa-48" value="PrintVolt(): bool&#10;PrintText(): bool&#10;PrintIcon(): bool&#10;PrintCap(): bool" style="text;strokeColor=#000000;fillColor=#ffffff;align=left;verticalAlign=top;spacingLeft=4;spacingRight=4;overflow=hidden;rotatable=0;points=[[0,0.5],[1,0.5]];portConstraint=eastwest;" parent="xz3UGmXirjeHPVvn3eTa-41" vertex="1">
                    <mxGeometry y="80" width="150" height="70" as="geometry"/>
                </mxCell>
            </root>
        </mxGraphModel>
    </diagram>
</mxfile>